<svg width="42" height="43" viewBox="0 0 42 43" fill="none" xmlns="http://www.w3.org/2000/svg">
<g clip-path="url(#clip0_106_216)">
<path d="M14 43.2518C17.864 43.2518 21 47.1853 21 43.2518V29H14C10.136 29 7 32.1924 7 36.1259C7 40.0594 10.136 43.2518 14 43.2518Z" fill="#0ACF83"/>
<path d="M28 43.2518C24.136 43.2518 21 47.1853 21 43.2518V29H28C31.864 29 35 32.1924 35 36.1259C35 40.0594 31.864 43.2518 28 43.2518Z" fill="#23F0A1"/>
<path d="M7 21.5C7 17.36 10.136 14 14 14H21V29H14C10.136 29 7 25.64 7 21.5Z" fill="#A259FF"/>
<path d="M7 7C7 3.136 10.136 0 14 0H21V14H14C10.136 14 7 10.864 7 7Z" fill="#F24E1E"/>
<path d="M21 0H28.5C32.64 0 36 3.136 36 7C36 10.864 32.64 14 28.5 14H21V0Z" fill="#FF7262"/>
<path d="M36 21.5C36 25.64 32.64 29 28.5 29C24.36 29 21 25.64 21 21.5C21 17.36 24.36 14 28.5 14C32.64 14 36 17.36 36 21.5Z" fill="#1ABCFE"/>
</g>
<defs>
<clipPath id="clip0_106_216">
<rect width="42" height="43" fill="white"/>
</clipPath>
</defs>
</svg>
